<?xml version="1.0" encoding="utf-8"?>
<!-- Svg Vector Icons : http://www.onlinewebfonts.com/icon -->
<!DOCTYPE svg PUBLIC "-//W3C//DTD SVG 1.1//EN" "http://www.w3.org/Graphics/SVG/1.1/DTD/svg11.dtd">
<svg version="1.1" xmlns="http://www.w3.org/2000/svg" xmlns:xlink="http://www.w3.org/1999/xlink" x="0px" y="0px" viewBox="0 0 256 256" enable-background="new 0 0 256 256" xml:space="preserve">
<metadata> Svg Vector Icons : http://www.onlinewebfonts.com/icon </metadata>
<g><g><path fill="#666666" d="M127.9,246C62.7,246,10,193.1,10,128S62.7,10,127.9,10C193.1,10,246,62.9,246,128C246,193.1,193.1,246,127.9,246z M128,34.6c-51.6,0-93.4,41.8-93.4,93.4c0,51.6,41.8,93.4,93.4,93.4c51.6,0,93.4-41.8,93.4-93.4C221.4,76.4,179.6,34.6,128,34.6z M116.2,139.8V69h17.7v61.9l53.1,31.5l-8.8,14.5L116.2,139.8z"/></g></g>
</svg>