<svg width="17" height="16" viewBox="0 0 17 16" fill="none" xmlns="http://www.w3.org/2000/svg">
<g clip-path="url(#clip0_58_3127)">
<path d="M2.4762 0C1.94576 0 1.43706 0.210714 1.06198 0.585786C0.68691 0.960859 0.476196 1.46957 0.476196 2L0.476196 14.793C0.476217 14.8919 0.505589 14.9886 0.560594 15.0709C0.615598 15.1531 0.693763 15.2172 0.785196 15.255C0.876628 15.2928 0.977217 15.3026 1.07423 15.2832C1.17125 15.2638 1.26033 15.216 1.3302 15.146L4.1832 12.293C4.37069 12.1055 4.625 12.0001 4.8902 12H14.4762C15.0066 12 15.5153 11.7893 15.8904 11.4142C16.2655 11.0391 16.4762 10.5304 16.4762 10V2C16.4762 1.46957 16.2655 0.960859 15.8904 0.585786C15.5153 0.210714 15.0066 0 14.4762 0L2.4762 0Z" fill="#54B856"/>
</g>
<defs>
<clipPath id="clip0_58_3127">
<rect width="16" height="16" fill="white" transform="translate(0.476196)"/>
</clipPath>
</defs>
</svg>
