<svg width="36" height="35" viewBox="0 0 36 35" fill="none" xmlns="http://www.w3.org/2000/svg">
<g clip-path="url(#clip0_14_1189)">
<path d="M6.76936 32.4844C6.59873 33.4557 7.55686 34.2148 8.40123 33.7816L18.0044 28.8466L27.6053 33.7816C28.4497 34.2148 29.4078 33.4557 29.2372 32.4866L27.4215 22.1398L35.1259 14.7985C35.8478 14.1116 35.4759 12.856 34.509 12.7204L23.7947 11.1979L19.0172 1.73256C18.9262 1.54069 18.7826 1.37859 18.6031 1.26508C18.4236 1.15156 18.2156 1.09131 18.0033 1.09131C17.7909 1.09131 17.5829 1.15156 17.4034 1.26508C17.224 1.37859 17.0804 1.54069 16.9894 1.73256L12.2119 11.2001L1.49748 12.7226C0.532797 12.8582 0.158734 14.1138 0.878422 14.8007L8.58498 22.1419L6.76936 32.4888V32.4844ZM17.499 26.4316L9.43592 30.5748L10.954 21.9188C10.9896 21.7196 10.9757 21.5146 10.9135 21.322C10.8514 21.1294 10.7428 20.955 10.5975 20.8141L4.24061 14.7547L13.1044 13.4948C13.2879 13.467 13.462 13.3952 13.6117 13.2855C13.7614 13.1758 13.8823 13.0314 13.964 12.8647L18 4.86287L22.0403 12.8647C22.122 13.0314 22.2429 13.1758 22.3926 13.2855C22.5424 13.3952 22.7164 13.467 22.9 13.4948L31.7637 14.7526L25.4069 20.8119C25.2612 20.953 25.1524 21.1278 25.0903 21.3208C25.0281 21.5139 25.0144 21.7192 25.0503 21.9188L26.5684 30.5748L18.5053 26.4316C18.3494 26.3512 18.1765 26.3093 18.0011 26.3093C17.8257 26.3093 17.655 26.3512 17.499 26.4316Z" fill="#54B856"/>
</g>
<defs>
<clipPath id="clip0_14_1189">
<rect width="35" height="35" fill="white" transform="translate(0.5)"/>
</clipPath>
</defs>
</svg>
